# xmcd
#
# Track frame offsets: 
#        150
#        18316
#        38601
#        49945
#        73382
#        89529
#        115992
#        141932
#        158415
#        175438
#        195190
#        210478
#        227257
#        250634
#        261882
#        304970
#        322656
#        340731
#
# Disc length: 4781 seconds
#
# Revision: 0
# Processed by: cddbd v1.5.2PL0 Copyright (c) Steve Scherf et al.
# Submitted via: ExactAudioCopy v1.3
#
DISCID=ed12ab12
DTITLE=Various Artist - Akella Presents - vol.116 - Blues Instrumenta
DTITLE=l  CD2
DYEAR=2017
DGENRE=Blues
TTITLE0=Tinsley Ellis - Estero Noche
TTITLE1=Mel Brown - A Beautiful Thing
TTITLE2=Delta Moon - Cabbagetown Shuffle
TTITLE3=Peder Af Ugglas - Central South
TTITLE4=Jimmie Bratcher - What Child Is This
TTITLE5=Otis Grand - SRV (My Mood Too)
TTITLE6=Nobby Reed - Im Crying Too
TTITLE7=Too Slim and The Taildraggers - Drinkin' Rye
TTITLE8=Willie May - Hola Teresa
TTITLE9=Pepe Ahlqvist - Bearsleep
TTITLE10=Santana - Europa
TTITLE11=Willie King - Strolling With Willie
TTITLE12=Lefthand Freddy - Anny's Mood
TTITLE13=Karlton Coffin Band - 3 Circles
TTITLE14=Flavio Guimaraes - Tributo a William Clarke
TTITLE15=Howell Devine - KC Blues
TTITLE16=Jeremy Spencer - Nightingale's Pledge
TTITLE17=Robert Ward - Chittlins con Carne
EXTD=
EXTT0=
EXTT1=
EXTT2=
EXTT3=
EXTT4=
EXTT5=
EXTT6=
EXTT7=
EXTT8=
EXTT9=
EXTT10=
EXTT11=
EXTT12=
EXTT13=
EXTT14=
EXTT15=
EXTT16=
EXTT17=
PLAYORDER=
